<svg width="185" height="179" viewBox="0 0 185 179" fill="none" xmlns="http://www.w3.org/2000/svg">
<g clip-path="url(#clip0_6_6)">
<path d="M185 89.829C185 40.2178 143.586 0 92.5 0C41.4136 0 0 40.2178 0 89.829C0 131.957 29.8645 167.305 70.1544 177.013V117.279H51.0799V89.829H70.1544V78.0007C70.1544 47.4258 84.4023 33.2543 115.312 33.2543C121.172 33.2543 131.284 34.3701 135.42 35.4859V60.37C133.237 60.1472 129.445 60.0352 124.734 60.0352C109.567 60.0352 103.706 65.6148 103.706 80.1208V89.829H133.92L128.73 117.279H103.706V179C149.507 173.628 185 135.756 185 89.829Z" fill="white"/>
</g>
<defs>
<clipPath id="clip0_6_6">
<rect width="185" height="179" fill="white"/>
</clipPath>
</defs>
</svg>
