<svg width="197" height="201" viewBox="0 0 197 201" fill="none" xmlns="http://www.w3.org/2000/svg">
<path fill-rule="evenodd" clip-rule="evenodd" d="M10.7821 145.542C3.92894 132.021 0 116.763 0 100.5C0 84.2372 3.92894 68.9796 10.7821 55.4577C27.3204 22.567 61.2199 0 100.51 0C127.648 0 150.309 9.95855 167.761 26.2215L138.978 55.0011C128.47 45.1336 115.313 40.0171 100.51 40.0171C74.3777 40.0171 52.1739 57.6506 44.2246 81.4052C42.2144 87.4352 41.0263 93.8303 41.0263 100.5C41.0263 107.17 42.2144 113.565 44.2246 119.595L44.1056 119.686H44.2246C52.1739 143.441 74.3777 161.074 100.51 161.074C114.033 161.074 125.455 157.419 134.41 151.389C145.101 144.263 152.227 133.665 154.603 121.148H100.51V82.2272H195.173C196.36 88.8057 197 95.6577 197 102.784C197 133.391 186.035 159.155 167.03 176.697C150.4 192.046 127.648 201 100.51 201C61.2199 201 27.3204 178.433 10.7821 145.634V145.542Z" fill="white"/>
</svg>
